<svg width="48" height="48" viewBox="0 0 48 48" fill="none" xmlns="http://www.w3.org/2000/svg">
<path d="M26 12C26 11.7239 25.7761 11.5 25.5 11.5H22.5C22.2239 11.5 22 11.7239 22 12V15C22 15.2761 22.2239 15.5 22.5 15.5H25.5C25.7761 15.5 26 15.2761 26 15V12Z" fill="#4D5567"></path>
<path d="M30 12C30 11.7239 30.2239 11.5 30.5 11.5H33.5C33.7761 11.5 34 11.7239 34 12V15C34 15.2761 33.7761 15.5 33.5 15.5H30.5C30.2239 15.5 30 15.2761 30 15V12Z" fill="#4D5567"></path>
<path d="M25.5 18.5C25.7761 18.5 26 18.7239 26 19V22C26 22.2761 25.7761 22.5 25.5 22.5H22.5C22.2239 22.5 22 22.2761 22 22V19C22 18.7239 22.2239 18.5 22.5 18.5H25.5Z" fill="#4D5567"></path>
<path d="M30 19C30 18.7239 30.2239 18.5 30.5 18.5H33.5C33.7761 18.5 34 18.7239 34 19V22C34 22.2761 33.7761 22.5 33.5 22.5H30.5C30.2239 22.5 30 22.2761 30 22V19Z" fill="#4D5567"></path>
<path d="M33.5 25.5C33.7761 25.5 34 25.7239 34 26V29C34 29.2761 33.7761 29.5 33.5 29.5H30.5C30.2239 29.5 30 29.2761 30 29V26C30 25.7239 30.2239 25.5 30.5 25.5H33.5Z" fill="#4D5567"></path>
<path d="M30 33C30 32.7239 30.2239 32.5 30.5 32.5H33.5C33.7761 32.5 34 32.7239 34 33V36C34 36.2761 33.7761 36.5 33.5 36.5H30.5C30.2239 36.5 30 36.2761 30 36V33Z" fill="#4D5567"></path>
<path fill-rule="evenodd" clip-rule="evenodd" d="M41.5 4C41.7761 4 42 4.22386 42 4.5V40H45.5C45.7761 40 46 40.2239 46 40.5V43.5C46 43.7761 45.7761 44 45.5 44H2.5C2.22386 44 2 43.7761 2 43.5V40.5C2 40.2239 2.22386 40 2.5 40H6V24.5C6 24.2239 6.22386 24 6.5 24H14V4.5C14 4.22386 14.2239 4 14.5 4H41.5ZM18 8V40H38V8H18ZM14 28H10V40H14V28Z" fill="#4D5567"></path>
</svg>
