<svg width="48" height="48" viewBox="0 0 48 48" fill="none" xmlns="http://www.w3.org/2000/svg">
<path d="M18 23.5C18 23.7761 18.2239 24 18.5 24H22.0083V26H18.5C18.2239 26 18 26.2239 18 26.5V29.5C18 29.7761 18.2239 30 18.5 30H22.0083V33.5C22.0083 33.7761 22.2322 34 22.5083 34H25.5083C25.7844 34 26.0083 33.7761 26.0083 33.5V30H29.5C29.7761 30 30 29.7761 30 29.5V26.5C30 26.2239 29.7761 26 29.5 26H26.0083V24H29.5C29.7761 24 30 23.7761 30 23.5V20.5C30 20.2239 29.7761 20 29.5 20H27.8285L31.0607 16.7678C31.256 16.5725 31.256 16.256 31.0607 16.0607L28.9394 13.9394C28.7441 13.7441 28.4275 13.7441 28.2323 13.9394L24 18.1716L19.7678 13.9394C19.5725 13.7441 19.256 13.7441 19.0607 13.9394L16.9394 16.0607C16.7441 16.256 16.7441 16.5725 16.9394 16.7678L20.1716 20H18.5C18.2239 20 18 20.2239 18 20.5V23.5Z" fill="#017860"></path>
<path fill-rule="evenodd" clip-rule="evenodd" d="M24 2C11.8497 2 2 11.8497 2 24C2 36.1503 11.8497 46 24 46C36.1503 46 46 36.1503 46 24C46 11.8497 36.1503 2 24 2ZM6 24C6 14.0589 14.0589 6 24 6C33.9411 6 42 14.0589 42 24C42 33.9411 33.9411 42 24 42C14.0589 42 6 33.9411 6 24Z" fill="#017860"></path>
</svg>
