<svg width="48" height="48" viewBox="0 0 48 48" fill="none" xmlns="http://www.w3.org/2000/svg">
<path d="M20 32.5C20 32.2239 20.2239 32 20.5 32H27.5C27.7761 32 28 32.2239 28 32.5V35.5C28 35.7761 27.7761 36 27.5 36H20.5C20.2239 36 20 35.7761 20 35.5V32.5Z" fill="#4D5567"></path>
<path fill-rule="evenodd" clip-rule="evenodd" d="M16 15C16 10.5817 19.5818 7 24 7C28.0729 7 31.4377 10.0455 31.9361 13.9826L32.1245 15.4707C32.1592 15.7447 32.4094 15.9387 32.6834 15.904L35.6596 15.5272C35.9336 15.4925 36.1275 15.2423 36.0929 14.9684L35.9045 13.4802C35.1562 7.56952 30.1132 3 24 3C17.3726 3 12 8.37257 12 15V18H5.5C5.22386 18 5 18.2239 5 18.5V44.5C5 44.7761 5.22386 45 5.5 45H42.5C42.7761 45 43 44.7761 43 44.5V18.5C43 18.2239 42.7761 18 42.5 18H16V15ZM39 41H9V22H39V41Z" fill="#4D5567"></path>
</svg>
