<svg width="48" height="48" viewBox="0 0 48 48" fill="none" xmlns="http://www.w3.org/2000/svg">
<path fill-rule="evenodd" clip-rule="evenodd" d="M14 14C14 8.47716 18.4771 4 24 4C29.5229 4 34 8.47716 34 14C34 19.5229 29.5229 24 24 24C18.4771 24 14 19.5229 14 14ZM24 8C20.6863 8 18 10.6863 18 14C18 17.3137 20.6863 20 24 20C27.3137 20 30 17.3137 30 14C30 10.6863 27.3137 8 24 8Z" fill="#4D5567"></path>
<path fill-rule="evenodd" clip-rule="evenodd" d="M4 36C4 30.4772 8.47715 26 14 26H34C39.5228 26 44 30.4772 44 36V43.5C44 43.7761 43.7761 44 43.5 44H4.5C4.22386 44 4 43.7761 4 43.5V36ZM14 30C10.6863 30 8 32.6863 8 36V40H40V36C40 32.6863 37.3137 30 34 30H14Z" fill="#4D5567"></path>
</svg>
